<?xml version="1.0" encoding="UTF-8"?>
<svg height="128px" viewBox="0 0 128 128" width="128px" xmlns="http://www.w3.org/2000/svg" xmlns:xlink="http://www.w3.org/1999/xlink">
    <linearGradient id="a" gradientUnits="userSpaceOnUse" x1="108.020844" x2="20.023651" y1="115.361802" y2="115.361802">
        <stop offset="0" stop-color="#e5a50a"/>
        <stop offset="0.0403539" stop-color="#f6d32d"/>
        <stop offset="0.0740165" stop-color="#e5a50a"/>
        <stop offset="0.913423" stop-color="#e5a50a"/>
        <stop offset="0.94721" stop-color="#f6d32d"/>
        <stop offset="1" stop-color="#e5a50a"/>
    </linearGradient>
    <path d="m 28.027344 16 h 72 c 4.417968 0 8 3.582031 8 8 v 88 c 0 4.417969 -3.582032 8 -8 8 h -72 c -4.417969 0 -8 -3.582031 -8 -8 v -88 c 0 -4.417969 3.582031 -8 8 -8 z m 0 0" fill="url(#a)"/>
    <path d="m 29.183594 8 h 69.6875 c 5.054687 0 9.15625 3.765625 9.15625 8.410156 v 90.144532 c 0 4.640624 -4.101563 8.40625 -9.15625 8.40625 h -69.6875 c -5.058594 0 -9.15625 -3.765626 -9.15625 -8.40625 v -90.144532 c 0 -4.644531 4.097656 -8.410156 9.15625 -8.410156 z m 0 0" fill="#f6d32d"/>
    <path d="m 33.789062 14.851562 h 60.472657 c 3.746093 0 6.78125 3.109376 6.78125 6.945313 v 43.855469 c 0 3.835937 -3.035157 6.945312 -6.78125 6.945312 h -60.472657 c -3.742187 0 -6.777343 -3.109375 -6.777343 -6.945312 v -43.855469 c 0 -3.835937 3.035156 -6.945313 6.777343 -6.945313 z m 0 0" fill="#241f31"/>
    <path d="m 38.210938 20.386719 h 51.632812 c 3.195312 0 5.785156 2.515625 5.785156 5.613281 v 35.449219 c 0 3.101562 -2.589844 5.613281 -5.785156 5.613281 h -51.632812 c -3.195313 0 -5.785157 -2.511719 -5.785157 -5.613281 v -35.449219 c 0 -3.097656 2.589844 -5.613281 5.785157 -5.613281 z m 0 0"/>
    <path d="m 38.210938 22.972656 h 51.632812 c 3.195312 0 5.785156 2.636719 5.785156 5.890625 v 32.308594 c 0 3.253906 -2.589844 5.890625 -5.785156 5.890625 h -51.632812 c -3.195313 0 -5.785157 -2.636719 -5.785157 -5.890625 v -32.308594 c 0 -3.253906 2.589844 -5.890625 5.785157 -5.890625 z m 0 0" fill="#deddda"/>
    <path d="m 80.882812 100.65625 c 0 3.992188 -3.238281 7.230469 -7.230468 7.230469 c -3.992188 0 -7.226563 -3.238281 -7.226563 -7.230469 s 3.234375 -7.226562 7.226563 -7.226562 c 3.992187 0 7.230468 3.234374 7.230468 7.226562 z m 0 0"/>
    <path d="m 66.425781 100.671875 h 14.457031 v -2.035156 h -14.457031 z m 0 0"/>
    <path d="m 96.882812 88.113281 c 0 3.992188 -3.238281 7.230469 -7.230468 7.230469 c -3.992188 0 -7.226563 -3.238281 -7.226563 -7.230469 c 0 -3.992187 3.234375 -7.230469 7.226563 -7.230469 c 3.992187 0 7.230468 3.238282 7.230468 7.230469 z m 0 0"/>
    <path d="m 82.425781 88.125 h 14.457031 v -2.03125 h -14.457031 z m 0 0"/>
    <path d="m 96.882812 86.113281 c 0 3.992188 -3.238281 7.230469 -7.230468 7.230469 c -3.992188 0 -7.226563 -3.238281 -7.226563 -7.230469 c 0 -3.992187 3.234375 -7.230469 7.226563 -7.230469 c 3.992187 0 7.230468 3.238282 7.230468 7.230469 z m 0 0" fill="#241f31"/>
    <path d="m 80.882812 98.65625 c 0 3.996094 -3.238281 7.230469 -7.230468 7.230469 c -3.992188 0 -7.226563 -3.234375 -7.226563 -7.230469 c 0 -3.992188 3.234375 -7.226562 7.226563 -7.226562 c 3.992187 0 7.230468 3.234374 7.230468 7.226562 z m 0 0" fill="#241f31"/>
    <path d="m 41.773438 80.882812 h 5.757812 c 1.15625 0 2.097656 1.136719 2.097656 2.539063 v 21.925781 c 0 1.402344 -0.941406 2.539063 -2.097656 2.539063 h -5.757812 c -1.160157 0 -2.101563 -1.136719 -2.101563 -2.539063 v -21.925781 c 0 -1.402344 0.941406 -2.539063 2.101563 -2.539063 z m 0 0"/>
    <path d="m 58.152344 91.507812 v 5.757813 c 0 1.15625 -1.136719 2.097656 -2.539063 2.097656 h -21.925781 c -1.402344 0 -2.539062 -0.941406 -2.539062 -2.097656 v -5.757813 c 0 -1.160156 1.136718 -2.101562 2.539062 -2.101562 h 21.925781 c 1.402344 0 2.539063 0.941406 2.539063 2.101562 z m 0 0"/>
    <g fill="#241f31">
        <path d="m 41.773438 78.882812 h 5.757812 c 1.15625 0 2.097656 1.136719 2.097656 2.539063 v 21.925781 c 0 1.402344 -0.941406 2.539063 -2.097656 2.539063 h -5.757812 c -1.160157 0 -2.101563 -1.136719 -2.101563 -2.539063 v -21.925781 c 0 -1.402344 0.941406 -2.539063 2.101563 -2.539063 z m 0 0"/>
        <path d="m 58.152344 89.507812 v 5.757813 c 0 1.15625 -1.136719 2.097656 -2.539063 2.097656 h -21.925781 c -1.402344 0 -2.539062 -0.941406 -2.539062 -2.097656 v -5.757813 c 0 -1.160156 1.136718 -2.101562 2.539062 -2.101562 h 21.925781 c 1.402344 0 2.539063 0.941406 2.539063 2.101562 z m 0 0"/>
    </g>
</svg>
