<?xml version="1.0" encoding="UTF-8"?>
<svg height="128px" viewBox="0 0 128 128" width="128px" xmlns="http://www.w3.org/2000/svg">
    <path d="m 28.027344 16 h 72 c 4.417968 0 8 3.582031 8 8 v 88 c 0 4.417969 -3.582032 8 -8 8 h -72 c -4.417969 0 -8 -3.582031 -8 -8 v -88 c 0 -4.417969 3.582031 -8 8 -8 z m 0 0" fill="#e5a50a"/>
    <path d="m 28.027344 9.035156 h 72 c 4.417968 0 8 3.511719 8 7.847656 v 90.234376 c 0 4.335937 -3.582032 7.847656 -8 7.847656 h -72 c -4.417969 0 -8 -3.511719 -8 -7.847656 v -90.234376 c 0 -4.335937 3.582031 -7.847656 8 -7.847656 z m 0 0" fill="#f5c211"/>
    <path d="m 33.789062 14.851562 h 60.472657 c 3.746093 0 6.78125 3.109376 6.78125 6.945313 v 43.855469 c 0 3.835937 -3.035157 6.945312 -6.78125 6.945312 h -60.472657 c -3.742187 0 -6.777343 -3.109375 -6.777343 -6.945312 v -43.855469 c 0 -3.835937 3.035156 -6.945313 6.777343 -6.945313 z m 0 0" fill="#241f31"/>
    <path d="m 38.210938 20.386719 h 51.632812 c 3.195312 0 5.785156 2.515625 5.785156 5.613281 v 35.449219 c 0 3.101562 -2.589844 5.613281 -5.785156 5.613281 h -51.632812 c -3.195313 0 -5.785157 -2.511719 -5.785157 -5.613281 v -35.449219 c 0 -3.097656 2.589844 -5.613281 5.785157 -5.613281 z m 0 0" fill="#deddda"/>
    <g fill="#241f31">
        <path d="m 96.882812 86.113281 c 0 3.992188 -3.238281 7.230469 -7.230468 7.230469 c -3.992188 0 -7.226563 -3.238281 -7.226563 -7.230469 c 0 -3.992187 3.234375 -7.230469 7.226563 -7.230469 c 3.992187 0 7.230468 3.238282 7.230468 7.230469 z m 0 0"/>
        <path d="m 80.882812 98.65625 c 0 3.996094 -3.238281 7.230469 -7.230468 7.230469 c -3.992188 0 -7.226563 -3.234375 -7.226563 -7.230469 c 0 -3.992188 3.234375 -7.226562 7.226563 -7.226562 c 3.992187 0 7.230468 3.234374 7.230468 7.226562 z m 0 0"/>
        <path d="m 41.773438 78.882812 h 5.757812 c 1.15625 0 2.097656 1.136719 2.097656 2.539063 v 21.925781 c 0 1.402344 -0.941406 2.539063 -2.097656 2.539063 h -5.757812 c -1.160157 0 -2.101563 -1.136719 -2.101563 -2.539063 v -21.925781 c 0 -1.402344 0.941406 -2.539063 2.101563 -2.539063 z m 0 0"/>
        <path d="m 58.152344 89.507812 v 5.757813 c 0 1.15625 -1.136719 2.097656 -2.539063 2.097656 h -21.925781 c -1.402344 0 -2.539062 -0.941406 -2.539062 -2.097656 v -5.757813 c 0 -1.160156 1.136718 -2.101562 2.539062 -2.101562 h 21.925781 c 1.402344 0 2.539063 0.941406 2.539063 2.101562 z m 0 0"/>
    </g>
</svg>
